<svg width="320" height="190" viewBox="0 0 320 190" fill="none" xmlns="http://www.w3.org/2000/svg">
<rect width="100" height="10" fill="#04BD0A"/>
<rect x="220" width="100" height="10" fill="#04BD0A"/>
<path d="M110 0H210V10H110V0Z" fill="#04BD0A"/>
<rect y="20" width="100" height="10" fill="#04BD0A"/>
<rect x="220" y="20" width="100" height="10" fill="#04BD0A"/>
<path d="M110 20H210V30H110V20Z" fill="#04BD0A"/>
<rect y="40" width="100" height="10" fill="#04BD0A"/>
<rect x="220" y="40" width="100" height="10" fill="#04BD0A"/>
<path d="M110 40H210V50H110V40Z" fill="#04BD0A"/>
<rect y="60" width="100" height="10" fill="#04BD0A"/>
<rect x="220" y="60" width="100" height="10" fill="#04BD0A"/>
<path d="M110 60H210V70H110V60Z" fill="#04BD0A"/>
<rect y="80" width="100" height="10" fill="#04BD0A"/>
<rect x="220" y="80" width="100" height="10" fill="#04BD0A"/>
<path d="M110 80H210V90H110V80Z" fill="#04BD0A"/>
<rect y="100" width="100" height="10" fill="#04BD0A"/>
<rect x="220" y="100" width="100" height="10" fill="#04BD0A"/>
<path d="M110 100H210V110H110V100Z" fill="#04BD0A"/>
<rect y="120" width="100" height="10" fill="#04BD0A"/>
<rect x="220" y="120" width="100" height="10" fill="#04BD0A"/>
<path d="M110 120H210V130H110V120Z" fill="#04BD0A"/>
<rect y="140" width="100" height="10" fill="#04BD0A"/>
<rect x="220" y="140" width="100" height="10" fill="#04BD0A"/>
<path d="M110 140H210V150H110V140Z" fill="#04BD0A"/>
<rect y="160" width="100" height="10" fill="#04BD0A"/>
<rect x="220" y="160" width="100" height="10" fill="#04BD0A"/>
<path d="M110 160H210V170H110V160Z" fill="#04BD0A"/>
<rect y="180" width="100" height="10" fill="#04BD0A"/>
<rect x="220" y="180" width="100" height="10" fill="#04BD0A"/>
<path d="M110 180H210V190H110V180Z" fill="#04BD0A"/>
</svg>
